<svg width="32" height="32" viewBox="0 0 32 32" fill="none" xmlns="http://www.w3.org/2000/svg">
<path d="M8.92862 12.0139L8.86366 13.0118C9.26663 13.038 9.64582 12.8193 9.82491 12.4574L8.92862 12.0139ZM21.3994 15.2005C20.9578 15.5322 20.8688 16.159 21.2005 16.6006C21.5322 17.0422 22.159 17.1312 22.6006 16.7995L21.3994 15.2005ZM8.5 24C5.46243 24 3 21.5376 3 18.5H1C1 22.6421 4.35786 26 8.5 26V24ZM3 18.5C3 15.4624 5.46243 13 8.5 13V11C4.35786 11 1 14.3579 1 18.5H3ZM8.5 26H25V24H8.5V26ZM29 20C29 22.2091 27.2091 24 25 24V26C28.3137 26 31 23.3137 31 20H29ZM9.82491 12.4574C11.1328 9.81411 13.8555 8 17 8V6C13.066 6 9.66452 8.27176 8.03234 11.5704L9.82491 12.4574ZM8.5 13C8.62233 13 8.74359 13.004 8.86366 13.0118L8.99358 11.016C8.83029 11.0054 8.6657 11 8.5 11V13ZM25 16C25.2624 16 25.5181 16.0251 25.7648 16.0729L26.1445 14.1092C25.7732 14.0374 25.3905 14 25 14V16ZM25.7648 16.0729C27.6082 16.4292 29 18.0532 29 20H31C31 17.0769 28.9108 14.644 26.1445 14.1092L25.7648 16.0729ZM17 8C21.1449 8 24.5547 11.1531 24.9597 15.1908L26.9497 14.9912C26.4432 9.94163 22.1825 6 17 6V8ZM22.6006 16.7995C23.2692 16.2973 24.0985 16 25 16V14C23.6501 14 22.4022 14.4472 21.3994 15.2005L22.6006 16.7995Z" fill="black"/>
</svg>
