<svg width="32" height="32" viewBox="0 0 32 32" fill="none" xmlns="http://www.w3.org/2000/svg">
<path d="M31 16C31 15.4477 30.5523 15 30 15C29.4477 15 29 15.4477 29 16H31ZM3 16C3 15.4477 2.55228 15 2 15C1.44772 15 1 15.4477 1 16H3ZM29 6.5C29 6.66766 28.8938 7.0002 28.2948 7.45542C27.7114 7.89872 26.8042 8.34079 25.5935 8.72995C23.1834 9.50464 19.7914 10 16 10V12C19.9406 12 23.5486 11.488 26.2055 10.634C27.5283 10.2088 28.6713 9.68124 29.5049 9.04779C30.3227 8.42626 31 7.57499 31 6.5H29ZM16 10C12.2086 10 8.81665 9.50464 6.40651 8.72995C5.1958 8.34079 4.28857 7.89872 3.70524 7.45542C3.10623 7.0002 3 6.66766 3 6.5H1C1 7.57499 1.67727 8.42626 2.49514 9.04779C3.32868 9.68124 4.47171 10.2088 5.7945 10.634C8.45137 11.488 12.0594 12 16 12V10ZM3 6.5C3 6.33234 3.10623 5.9998 3.70524 5.54458C4.28857 5.10128 5.1958 4.65921 6.40651 4.27005C8.81665 3.49536 12.2086 3 16 3V1C12.0594 1 8.45137 1.512 5.7945 2.36599C4.47171 2.79117 3.32868 3.31876 2.49514 3.95221C1.67727 4.57374 1 5.42501 1 6.5H3ZM16 3C19.7914 3 23.1834 3.49536 25.5935 4.27005C26.8042 4.65921 27.7114 5.10128 28.2948 5.54458C28.8938 5.9998 29 6.33234 29 6.5H31C31 5.42501 30.3227 4.57374 29.5049 3.95221C28.6713 3.31876 27.5283 2.79117 26.2055 2.36599C23.5486 1.512 19.9406 1 16 1V3ZM29 16C29 16.1677 28.8938 16.5002 28.2948 16.9554C27.7114 17.3987 26.8042 17.8408 25.5935 18.23C23.1834 19.0046 19.7914 19.5 16 19.5V21.5C19.9406 21.5 23.5486 20.988 26.2055 20.134C27.5283 19.7088 28.6713 19.1812 29.5049 18.5478C30.3227 17.9263 31 17.075 31 16H29ZM16 19.5C12.2086 19.5 8.81665 19.0046 6.40651 18.23C5.1958 17.8408 4.28857 17.3987 3.70524 16.9554C3.10623 16.5002 3 16.1677 3 16H1C1 17.075 1.67727 17.9263 2.49514 18.5478C3.32868 19.1812 4.47171 19.7088 5.7945 20.134C8.45137 20.988 12.0594 21.5 16 21.5V19.5ZM29 25.5C29 25.6677 28.8938 26.0002 28.2948 26.4554C27.7114 26.8987 26.8042 27.3408 25.5935 27.73C23.1834 28.5046 19.7914 29 16 29V31C19.9406 31 23.5486 30.488 26.2055 29.634C27.5283 29.2088 28.6713 28.6812 29.5049 28.0478C30.3227 27.4263 31 26.575 31 25.5H29ZM16 29C12.2086 29 8.81665 28.5046 6.40651 27.73C5.1958 27.3408 4.28857 26.8987 3.70524 26.4554C3.10623 26.0002 3 25.6677 3 25.5H1C1 26.575 1.67727 27.4263 2.49514 28.0478C3.32868 28.6812 4.47171 29.2088 5.7945 29.634C8.45137 30.488 12.0594 31 16 31V29ZM1 6.5V25.5H3V6.5H1ZM29 6.5V25.5H31V6.5H29Z" fill="black"/>
</svg>
