<svg width="32" height="32" viewBox="0 0 32 32" fill="none" xmlns="http://www.w3.org/2000/svg">
<path d="M13.0595 3.63299C14.4153 1.45567 17.5847 1.45567 18.9405 3.63299C19.7241 4.89142 21.2216 5.51172 22.6656 5.17595C25.1638 4.59502 27.405 6.83619 26.824 9.33445C26.4883 10.7784 27.1086 12.2759 28.367 13.0595C30.5443 14.4153 30.5443 17.5847 28.367 18.9405C27.1086 19.7241 26.4883 21.2216 26.824 22.6656C27.405 25.1638 25.1638 27.405 22.6656 26.824C21.2216 26.4883 19.7241 27.1086 18.9405 28.367C17.5847 30.5443 14.4153 30.5443 13.0595 28.367C12.2759 27.1086 10.7784 26.4883 9.33445 26.824C6.83619 27.405 4.59502 25.1638 5.17595 22.6656C5.51172 21.2216 4.89142 19.7241 3.63299 18.9405C1.45567 17.5847 1.45567 14.4153 3.63299 13.0595C4.89142 12.2759 5.51172 10.7784 5.17595 9.33445C4.59502 6.83619 6.83619 4.59502 9.33445 5.17595C10.7784 5.51172 12.2759 4.89142 13.0595 3.63299Z" stroke="black" stroke-width="2"/>
<circle cx="16" cy="16" r="5" stroke="#1595F1" stroke-width="2"/>
</svg>
