<svg width="32" height="32" viewBox="0 0 32 32" fill="none" xmlns="http://www.w3.org/2000/svg">
<path d="M16 30L15.305 30.719C15.6926 31.0937 16.3074 31.0937 16.695 30.719L16 30ZM7.51472 21.799L6.81976 22.518L6.81976 22.518L7.51472 21.799ZM16.695 29.281L8.20968 21.0799L6.81976 22.518L15.305 30.719L16.695 29.281ZM23.7903 21.0799L15.305 29.281L16.695 30.719L25.1802 22.518L23.7903 21.0799ZM23.7903 6.11602C28.0699 10.2522 28.0699 16.9437 23.7903 21.0799L25.1802 22.518C30.2733 17.5957 30.2733 9.60031 25.1802 4.67792L23.7903 6.11602ZM8.20968 6.11602C12.5084 1.96133 19.4916 1.96133 23.7903 6.11602L25.1802 4.67792C20.1064 -0.225974 11.8936 -0.225974 6.81976 4.67792L8.20968 6.11602ZM8.20968 21.0799C3.93011 16.9437 3.93011 10.2522 8.20968 6.11602L6.81976 4.67792C1.72675 9.60031 1.72675 17.5957 6.81976 22.518L8.20968 21.0799Z" fill="black"/>
<circle cx="16" cy="14" r="5" stroke="#1595F1" stroke-width="2" stroke-linejoin="round"/>
</svg>
